<svg xmlns="http://www.w3.org/2000/svg" viewBox="0 0 800 600">
  <!-- Background -->
  <rect width="800" height="600" fill="#f8f9fa" />
  
  <!-- Title -->
  <text x="400" y="30" font-family="Arial" font-size="20" text-anchor="middle" fill="#333" font-weight="bold">Luồng xử lý Message trong Chat Service</text>
  
  <!-- Client -->
  <rect x="50" y="80" width="120" height="60" rx="5" fill="#e6f7ff" stroke="#1890ff" stroke-width="2" />
  <text x="110" y="115" font-family="Arial" font-size="14" text-anchor="middle" fill="#1890ff" font-weight="bold">Client</text>
  
  <!-- REST API -->
  <rect x="50" y="180" width="120" height="60" rx="5" fill="#f9f0ff" stroke="#722ed1" stroke-width="2" />
  <text x="110" y="205" font-family="Arial" font-size="14" text-anchor="middle" fill="#722ed1" font-weight="bold">REST API</text>
  <text x="110" y="225" font-family="Arial" font-size="11" text-anchor="middle" fill="#722ed1">MessageController</text>
  
  <!-- Use Case -->
  <rect x="230" y="180" width="120" height="60" rx="5" fill="#fffbe6" stroke="#faad14" stroke-width="2" />
  <text x="290" y="205" font-family="Arial" font-size="14" text-anchor="middle" fill="#faad14" font-weight="bold">Use Case</text>
  <text x="290" y="225" font-family="Arial" font-size="11" text-anchor="middle" fill="#faad14">SendMessageUseCase</text>
  
  <!-- Service -->
  <rect x="410" y="180" width="120" height="60" rx="5" fill="#f9f0ff" stroke="#722ed1" stroke-width="2" />
  <text x="470" y="205" font-family="Arial" font-size="14" text-anchor="middle" fill="#722ed1" font-weight="bold">Service</text>
  <text x="470" y="225" font-family="Arial" font-size="11" text-anchor="middle" fill="#722ed1">MessageServiceImpl</text>
  
  <!-- Domain -->
  <rect x="590" y="180" width="120" height="60" rx="5" fill="#e6f7ff" stroke="#1890ff" stroke-width="2" />
  <text x="650" y="205" font-family="Arial" font-size="14" text-anchor="middle" fill="#1890ff" font-weight="bold">Domain</text>
  <text x="650" y="225" font-family="Arial" font-size="11" text-anchor="middle" fill="#1890ff">Message Entity</text>
  
  <!-- Repository -->
  <rect x="590" y="320" width="120" height="60" rx="5" fill="#f6ffed" stroke="#52c41a" stroke-width="2" />
  <text x="650" y="345" font-family="Arial" font-size="14" text-anchor="middle" fill="#52c41a" font-weight="bold">Repository</text>
  <text x="650" y="365" font-family="Arial" font-size="11" text-anchor="middle" fill="#52c41a">TextFileRepository</text>
  
  <!-- WebSocket -->
  <rect x="410" y="320" width="120" height="60" rx="5" fill="#f6ffed" stroke="#52c41a" stroke-width="2" />
  <text x="470" y="345" font-family="Arial" font-size="14" text-anchor="middle" fill="#52c41a" font-weight="bold">WebSocket</text>
  <text x="470" y="365" font-family="Arial" font-size="11" text-anchor="middle" fill="#52c41a">MessageSender</text>
  
  <!-- Event -->
  <rect x="230" y="320" width="120" height="60" rx="5" fill="#fff0f6" stroke="#eb2f96" stroke-width="2" />
  <text x="290" y="345" font-family="Arial" font-size="14" text-anchor="middle" fill="#eb2f96" font-weight="bold">Event</text>
  <text x="290" y="365" font-family="Arial" font-size="11" text-anchor="middle" fill="#eb2f96">MessageCreatedEvent</text>
  
  <!-- Receiver Client -->
  <rect x="410" y="440" width="120" height="60" rx="5" fill="#e6f7ff" stroke="#1890ff" stroke-width="2" />
  <text x="470" y="475" font-family="Arial" font-size="14" text-anchor="middle" fill="#1890ff" font-weight="bold">Receiver Client</text>
  
  <!-- Event Listener -->
  <rect x="230" y="440" width="120" height="60" rx="5" fill="#fff0f6" stroke="#eb2f96" stroke-width="2" />
  <text x="290" y="465" font-family="Arial" font-size="14" text-anchor="middle" fill="#eb2f96" font-weight="bold">Event Listener</text>
  <text x="290" y="485" font-family="Arial" font-size="11" text-anchor="middle" fill="#eb2f96">(Future Extension)</text>
  
  <!-- Flow Arrows -->
  <!-- Client to REST API -->
  <line x1="110" y1="140" x2="110" y2="180" stroke="#333" stroke-width="1.5" />
  <polygon points="110,180 106,170 114,170" fill="#333" />
  <text x="130" y="160" font-family="Arial" font-size="11" fill="#666">1. HTTP POST</text>
  
  <!-- REST API to Use Case -->
  <line x1="170" y1="210" x2="230" y2="210" stroke="#333" stroke-width="1.5" />
  <polygon points="230,210 220,206 220,214" fill="#333" />
  <text x="200" y="200" font-family="Arial" font-size="11" fill="#666">2. Execute</text>
  
  <!-- Use Case to Service -->
  <line x1="350" y1="210" x2="410" y2="210" stroke="#333" stroke-width="1.5" />
  <polygon points="410,210 400,206 400,214" fill="#333" />
  <text x="380" y="200" font-family="Arial" font-size="11" fill="#666">3. Delegate</text>
  
  <!-- Service to Domain -->
  <line x1="530" y1="210" x2="590" y2="210" stroke="#333" stroke-width="1.5" />
  <polygon points="590,210 580,206 580,214" fill="#333" />
  <text x="560" y="200" font-family="Arial" font-size="11" fill="#666">4. Create</text>
  
  <!-- Domain to Repository -->
  <line x1="650" y1="240" x2="650" y2="320" stroke="#333" stroke-width="1.5" />
  <polygon points="650,320 646,310 654,310" fill="#333" />
  <text x="660" y="280" font-family="Arial" font-size="11" fill="#666">5. Persist</text>
  
  <!-- Domain to WebSocket -->
  <line x1="590" y1="220" x2="520" y2="260" stroke="#333" stroke-width="1.5" />
  <line x1="520" y1="260" x2="470" y2="320" stroke="#333" stroke-width="1.5" />
  <polygon points="470,320 471,309 479,314" fill="#333" />
  <text x="535" y="270" font-family="Arial" font-size="11" fill="#666">6. Send via WebSocket</text>
  
  <!-- WebSocket to Receiver Client -->
  <line x1="470" y1="380" x2="470" y2="440" stroke="#333" stroke-width="1.5" />
  <polygon points="470,440 466,430 474,430" fill="#333" />
  <text x="480" y="410" font-family="Arial" font-size="11" fill="#666">7. Push Notification</text>
  
  <!-- Domain to Event -->
  <line x1="590" y1="220" x2="350" y2="260" stroke="#333" stroke-width="1.5" />
  <line x1="350" y1="260" x2="290" y2="320" stroke="#333" stroke-width="1.5" />
  <polygon points="290,320 291,309 299,314" fill="#333" />
  <text x="350" y="270" font-family="Arial" font-size="11" fill="#666">8. Emit Event</text>
  
  <!-- Event to Event Listener -->
  <line x1="290" y1="380" x2="290" y2="440" stroke="#333" stroke-width="1.5" />
  <polygon points="290,440 286,430 294,430" fill="#333" />
  <text x="320" y="410" font-family="Arial" font-size="11" fill="#666">9. Notify</text>
  
  <!-- Class Detail for SendMessageUseCase -->
  <rect x="50" y="530" width="330" height="50" rx="5" fill="white" stroke="#f0f0f0" stroke-width="1" />
  <text x="60" y="550" font-family="monospace" font-size="11" fill="#333">SendMessageUseCase:</text>
  <text x="60" y="570" font-family="monospace" font-size="11" fill="#333">void execute(UserId senderId, UserId receiverId, MessageContent)</text>
  
  <!-- Class Detail for MessageServiceImpl -->
  <rect x="420" y="530" width="330" height="50" rx="5" fill="white" stroke="#f0f0f0" stroke-width="1" />
  <text x="430" y="550" font-family="monospace" font-size="11" fill="#333">MessageServiceImpl:</text>
  <text x="430" y="570" font-family="monospace" font-size="11" fill="#333">Message sendMessage(UserId, UserId, MessageContent)</text>
</svg>